<svg width="826" height="942" viewBox="0 0 826 942" fill="none" xmlns="http://www.w3.org/2000/svg">
<path d="M610 411.867C604.4 412.533 603.2 413.2 602.933 415.6C602.667 417.6 601.6 418.667 600 418.667C596.4 418.667 595.067 424 598.133 426.267C601.333 428.667 605.6 428.4 611.333 425.733C615.867 423.6 616.533 423.6 620 425.6C622.667 427.067 624.133 427.333 625.2 426.267C627.2 424.267 628.133 425.6 628.267 430.533C628.4 435.867 629.867 435.733 632.533 430.133C635.467 424 635.2 421.2 631.6 415.867C628.933 411.867 627.867 411.333 622.667 411.2C619.333 411.067 613.733 411.333 610 411.867Z" fill="black"/>
<path d="M477.333 416.667C476.4 417.867 476.267 418.667 477.067 418.667C477.733 418.667 478.667 417.733 479.2 416.667C479.6 415.6 479.733 414.667 479.467 414.667C479.2 414.667 478.267 415.6 477.333 416.667Z" fill="black"/>
<path d="M461.333 423.733C461.333 426.133 462.933 429.333 464.133 429.333C466 429.333 465.467 425.867 463.333 424C462.133 422.933 461.333 422.933 461.333 423.733Z" fill="black"/>
<path d="M624 442C623.2 443.067 622.933 444.667 623.467 445.467C624.133 446.667 624.933 446.4 626.267 444.667C629.333 440.267 627.467 437.867 624 442Z" fill="black"/>
<path d="M406.267 448.933C404.4 450.667 405.467 452.133 407.867 451.333C411.867 450.133 422.533 453.333 424.667 456.4C426.267 458.667 426.933 458.933 428.267 457.6C429.733 456.133 429.333 455.333 426.667 453.333C421.6 449.467 408.533 446.667 406.267 448.933Z" fill="black"/>
<path d="M635.867 453.333C630 459.867 624 460.8 624 455.333C624 453.467 623.333 452 622.667 452C617.867 452 600.8 463.733 594.8 471.067L591.467 475.067L595.867 478.933L600.267 482.8L598.8 491.2C596.4 504.8 595.733 503.867 609.733 504.267L622 504.667L623.733 510.267C626.4 518.4 630.8 519.867 641.733 516C653.333 511.867 660.8 506.933 664.933 500.667C669.467 493.867 670.533 483.6 667.333 476.933C665.333 472.533 665.333 472 667.333 468C668.8 465.333 671.6 462.8 675.467 461.2C678.667 459.733 681.333 458 681.333 457.2C681.333 454.533 664.267 450 649.333 448.8L640.667 448L635.867 453.333Z" fill="black"/>
<path d="M473.6 496.267C472.933 497.2 470.8 503.067 468.933 509.333L465.467 520.667L460.4 520.8C457.6 520.8 446.933 523.333 436.667 526.533C426.4 529.6 416.533 532.4 414.667 532.533C412.8 532.8 411.467 533.333 411.733 533.867C411.867 534.267 412 535.6 412 536.667C412 537.733 414.133 540.667 416.8 543.2C422 548.267 432.667 552.8 450.667 557.467C467.467 561.867 474.667 565.467 480.933 572.533C489.333 582 495.333 599.333 496.8 618C497.733 629.067 499.867 635.067 503.6 637.067C505.067 638 505.467 639.467 504.933 642.267C504.533 644.4 504.533 646.8 505.067 647.6C505.733 648.533 511.2 649.333 519.333 649.6C530.4 649.867 532.667 649.6 532.667 648C532.667 646.933 530.133 645.2 527.067 644C518.4 640.8 517.733 639.6 521.867 634.667C525.2 630.533 525.333 630 525.467 610.933C525.6 588.4 527.067 589.867 529.467 614.667C530.933 630.4 532.4 633.867 538 636C540.133 636.8 540.667 638.133 540.667 642.8V648.667L552.4 649.733C558.8 650.4 565.067 650.533 566.133 650.133C569.733 648.8 568 646.533 561.333 643.733C553.6 640.533 551.867 636.933 555.333 631.6C557.333 628.4 557.333 626.4 555.333 603.067C551.333 555.867 546.533 544.267 525.2 530.4C519.467 526.667 514.667 523.067 514.667 522.4C514.667 521.867 516.533 516.133 518.667 509.733C520.933 503.333 522.4 497.333 522.133 496.4C521.2 494 475.6 493.867 473.6 496.267ZM498.667 510C498.667 511.067 497.733 512 496.667 512C495.6 512 494.667 511.067 494.667 510C494.667 508.933 495.6 508 496.667 508C497.733 508 498.667 508.933 498.667 510Z" fill="black"/>
<path d="M672.933 518.4C670.933 520.533 663.867 524.8 657.333 528.133C650.667 531.333 645.333 534.4 645.333 534.933C645.333 535.6 630.667 536 612.8 536H580.267L577.333 527.333L574.4 518.667H568.533C559.6 518.667 554 521.6 550.8 527.867C544.667 539.6 548.667 552.933 560.533 560.4C566.933 564.4 579.467 568 587.067 568C590.667 568 593.467 569.067 596.267 571.333C599.6 574.133 601.6 574.667 609.333 574.667C615.733 574.667 618.8 575.2 620 576.667C623.333 580.667 662.933 578.533 682.267 573.333C695.867 569.6 704.4 564 708.133 556.4C710.933 550.533 711.067 550.133 708.8 543.2C705.733 533.733 697.6 526.267 686.933 523.733C680.267 522.133 679.333 521.467 678.933 518.267C678.4 513.733 677.333 513.733 672.933 518.4Z" fill="black"/>
<path d="M813.733 575.2C785.867 588.533 767.867 611.2 761.333 640.667C760 647.2 757.733 662.4 756.533 674.267C754.133 698 754.667 701.733 760.933 706.533C763.733 708.8 763.867 709.333 762.133 711.067C760.933 712.133 757.067 713.733 753.333 714.667C746.667 716.267 743.733 719.067 746.133 721.333C746.8 721.867 753.867 722.667 761.733 722.933C778.133 723.6 780 722.8 780 715.333C780 712.133 780.667 710.667 782.4 710.133C787.867 708.4 790.933 703.067 793.333 691.067L795.6 679.333L794.933 690.933C794.133 704.4 795.733 709.733 801.733 713.333C806.133 716 806 716.267 795.733 719.2C788.267 721.333 786 723.867 789.467 726.133C791.867 727.6 819.2 727.733 821.067 726.267C821.867 725.6 822.667 722.667 822.667 719.867C822.667 716.267 823.333 714.667 825.067 714.133C828.8 712.933 830.4 709.067 833.333 694.8C834.8 687.467 837.733 676.8 839.733 670.933L843.467 660.533L840.4 658.133C838.133 656.533 837.333 654.533 837.333 650.8C837.333 643.733 840.8 640.8 848.267 641.6C853.467 642.267 854.533 641.867 859.333 637.2C862.8 633.867 868 630.933 874 628.8C880.533 626.4 882.267 625.467 879.733 625.333C874 625.333 870.667 621.067 870.667 614C870.667 608.933 870.267 608 868 608C866.267 608 865.333 607.067 865.333 605.333C865.333 603.6 866.267 602.667 868 602.667C869.733 602.667 870.667 601.733 870.667 600C870.667 598 871.6 597.333 874 597.333C876.4 597.333 877.333 598 877.333 600C877.333 602 878.267 602.667 880.667 602.667C883.067 602.667 884 603.333 884 605.333C884 607.333 883.067 608 880.533 608C877.467 608 877.2 608.4 877.6 613.6C877.867 618.4 878.533 619.467 881.067 619.733C882.933 620 884 621.067 884 622.667C884 624.4 884.933 625.067 886.667 624.933C889.867 624.667 889.867 624.133 887.333 620.8C884.267 616.667 884.8 609.733 888.667 606C896 598.667 908 603.867 908 614.4C908 617.2 907.467 620 906.667 620.8C905.867 621.6 906.267 622.133 908 622.133C910.4 622.133 910.667 621.467 909.867 616.4C909.067 611.333 909.467 610.4 913.067 606.667C917.733 602 923.467 601.333 928 605.067C930.667 607.2 930.667 607.6 928.933 609.2C927.333 610.4 926.133 610.533 924.133 609.333C920.267 607.333 916 609.733 916 614.133C916 618.4 918.8 619.333 925.867 617.733C930.8 616.667 931.467 616.8 931.333 618.8C931.2 620.133 930.533 622 929.6 623.067C928.667 624 928.4 625.333 928.8 625.733C929.2 626.133 926.133 626.267 921.867 625.867C916.4 625.467 914.667 625.733 916 626.667C917.733 627.867 917.733 628 916 628C914.8 628 912.4 627.067 910.667 625.867C908.267 624.4 908.533 624.8 911.333 627.2C913.6 629.067 916.133 630.4 917.067 630C918.133 629.6 919.733 629.333 920.8 629.333C922 629.333 922.4 628.667 922 628C921.6 627.2 922.133 626.667 923.2 626.667C925.467 626.667 925.2 630.133 922.533 634.933C921.6 636.667 920.933 638.4 921.067 638.933C921.2 639.6 920.8 640 920 640C919.2 640 918.933 642 919.467 644.8C920 648.133 919.733 649.333 918.8 648.667C917.867 648.267 917.333 648.267 917.467 648.933C917.867 651.6 917.2 652.533 916 650.667C914.8 648.933 914.667 648.933 914.667 650.667C914.667 651.733 915.2 653.6 916 654.667C916.933 656.267 917.6 656.133 920.267 654L923.333 651.333L920.933 654.267C919.6 655.867 919.067 657.467 919.733 657.867C920.533 658.267 921.467 657.733 921.867 656.667C922.533 654.933 923.2 654.8 925.467 656C929.6 658.267 927.067 659.733 918.933 660.133C911.067 660.533 909.333 659.2 910.4 653.867C910.8 651.333 910.533 650.8 908.8 651.467C906.267 652.4 906 654.667 908.4 654.667C909.6 654.667 909.6 654.933 908.267 655.867C907.2 656.4 906.533 657.333 906.533 657.867C906.933 660.533 906.4 661.067 904 660.667C902.533 660.4 901.6 660.667 902 661.2C902.267 661.867 901.733 663.067 900.667 664C899.067 665.333 898.267 665.333 896.533 663.867C894.533 662.267 894.4 662.4 895.333 665.067C896.133 668 896 668.133 893.467 666.8C891.867 665.867 890.667 665.733 890.667 666.267C890.667 667.733 895.467 671.867 902.4 676.4L908.133 680L954.133 679.867C979.467 679.733 1000.4 679.067 1000.8 678.533C1001.2 677.867 1000.53 677.333 999.467 677.333C997.867 677.333 997.6 676.667 998.533 674.267C1000 670.4 1002.67 662 1002.67 661.2C1002.67 660.8 1001.47 660.533 999.867 660.4C994.8 660 993.333 657.467 993.333 649.2C993.333 643.067 993.733 641.333 995.333 641.333C996.8 641.333 997.333 642.933 997.333 648C997.333 652.933 997.867 654.933 999.467 655.6C1002.4 656.667 1004.67 654 1004.93 648.933C1004.93 646.533 1005.2 643.867 1005.2 642.933C1005.33 642.133 1006.67 641.333 1008.27 641.333C1009.87 641.333 1010.8 640.933 1010.27 640.533C1009.87 640.133 1010.4 637.2 1011.6 634.267C1012.67 631.2 1014.13 624.933 1014.8 620.267C1015.47 615.6 1017.2 609.467 1018.8 606.533C1022 600.133 1021.33 598.8 1016.53 602C1014.67 603.2 1013.2 603.733 1013.47 603.067C1013.73 602.533 1016 598 1018.4 593.2C1020.8 588.4 1023.2 582.533 1023.87 580.267L1025.2 576H972.933C941.467 576 919.867 576.533 918.667 577.333C916.933 578.4 917.067 578.667 919.067 578.667C922.267 578.667 921.867 580.933 918.4 581.733C914.8 582.8 913.333 581.867 913.333 578.533C913.333 576.667 912.4 576 910 576C908.133 576 906.667 576.533 906.667 577.333C906.667 578 904.667 578.667 902.4 578.667C898.933 578.667 898.4 578.267 900 577.2C901.467 576.267 891.467 576 866 576.267L830 576.667L828.667 573.6C826.933 569.6 824.933 569.867 813.733 575.2ZM955.6 592.267C955.2 593.333 954.8 592.933 954.8 591.467C954.667 590 955.067 589.2 955.467 589.733C955.867 590.133 956 591.333 955.6 592.267ZM843.467 595.333C844.4 597.733 841.733 601.333 839.067 601.333C836.8 601.333 835.467 598.133 836.533 595.333C837.467 592.667 842.533 592.8 843.467 595.333ZM862.8 594.8C865.067 595.867 865.2 596.533 863.867 598.133C862.8 599.333 861.067 599.867 859.2 599.467C855.467 598.533 852 599.733 852 602C852 602.8 854.4 604.667 857.467 606C866.8 610.267 869.067 616.4 863.333 622C859.333 626.133 851.067 626.533 846.667 622.933C844 620.8 843.867 620.4 845.867 618.8C847.6 617.333 848.8 617.333 852.133 618.667C855.6 620.133 856.533 620.133 858.267 618.267C860 616.533 860.133 615.733 858.8 614.133C857.867 613.067 855.733 611.733 854.267 611.2C846.933 609.067 843.333 602 847.067 597.2C850 593.333 857.867 592.133 862.8 594.8ZM938.933 602L938.4 610L942.4 606.267C944.8 604 947.867 602.4 950.267 602.4C953.733 602.267 954.133 601.867 954 598.4C953.733 595.067 954.133 594.667 957.6 594.933C960.267 595.2 961.333 596 961.333 597.867C961.333 599.333 960.933 600 960.4 599.6C959.2 598.267 955.867 601.467 956.933 603.067C957.333 603.733 957.2 604 956.4 603.6C954.4 602.4 948.533 609.467 948.267 613.333C948.133 615.467 949.733 618.267 952.267 620.933L956.533 625.333H951.467C947.867 625.333 945.733 624.4 943.467 622L940.4 618.667L940.667 621.867C940.933 623.733 941.6 626 942.133 626.933C942.933 628.267 942.667 628.267 940.933 626.8C939.2 625.467 938.267 625.333 936.933 626.533C935.867 627.333 934.667 627.6 934.133 627.067C933.6 626.533 932.533 626.933 931.867 628C930.667 629.6 930.533 629.6 931.2 627.6C931.6 626.4 931.2 625.333 930.4 625.333C929.6 625.333 929.867 624.267 931.067 622.933C932.933 620.933 933.333 617.6 933.333 606.8C933.333 593.467 933.333 593.2 936.4 593.6C939.067 594 939.333 594.533 938.933 602ZM842.667 614C842.667 625.2 842.667 625.333 839.333 625.333C836 625.333 836 625.2 836 614C836 602.8 836 602.667 839.333 602.667C842.667 602.667 842.667 602.8 842.667 614ZM923.733 640.8C923.2 641.2 924.133 642.8 925.6 644.267C928.267 646.933 928.267 647.2 926 648.8C923.333 650.8 921.333 650.133 921.333 647.2C921.333 646.133 922.4 645.2 923.733 645.2C925.867 645.067 925.867 644.933 923.733 644.4C922.4 644.133 921.333 643.333 921.333 642.8C921.333 641.6 922.8 640 923.733 640C924.133 640 924.133 640.4 923.733 640.8ZM992 641.333C992 642 991.067 642.667 990 642.667C987.6 642.667 987.333 644.8 989.733 645.867C991.067 646.533 991.067 646.8 989.733 647.467C988.667 647.867 988 650.667 988 654.133C988 658.4 987.467 660 986 660C984.533 660 984 658.4 984 653.867C984 648.8 983.6 647.867 981.867 648.533C980.667 648.933 978.933 649.333 977.867 649.333C976.533 649.333 976 650.933 976 654.667C976 659.067 975.6 660 973.333 660C970.933 660 970.667 659.067 970.667 652.667V645.333H977.2C982.533 645.333 983.867 644.933 984.4 642.667C984.8 640.8 986.267 640 988.533 640C990.4 640 992 640.533 992 641.333ZM950.533 643.067C952.533 645.6 949.6 648.533 947.2 646.533C946.267 645.733 944.4 645.333 943.067 645.733C940.8 646.267 942.533 647.2 950.4 650C952.8 650.8 952.4 658.267 949.867 659.2C944.533 661.2 936 659.6 936 656.667C936 654 938.667 652.8 940.4 654.533C942.133 656.267 948 656.533 948 654.933C948 654.267 945.6 653.067 942.667 652.133C938.133 650.8 937.333 650 937.333 646.8C937.333 644.8 937.733 642.667 938.267 642.267C939.867 640.667 948.933 641.333 950.533 643.067ZM958.667 650.8C958.667 655.2 959.067 656.133 961.067 655.733C962.667 655.467 963.467 653.867 963.733 650.267C964.4 643.067 967.6 643.733 968.267 651.333C968.8 659.6 968.533 660 961.867 660C956.667 660 955.733 659.6 954.667 656.533C953.867 654.667 953.333 651.333 953.333 649.2C953.333 646.267 954 645.333 956 645.333C958.267 645.333 958.667 646.267 958.667 650.8ZM981.333 672.667C981.333 676.8 980.933 677.333 977.867 677.333C974.8 677.333 974.667 677.2 976.533 675.2C977.733 674.133 978.667 672 978.667 670.533C978.667 669.2 979.333 668 980 668C980.8 668 981.333 670.133 981.333 672.667Z" fill="black"/>
<path d="M516.933 775.733C511.733 781.333 516 792 523.333 792C527.067 792 532 787.733 532 784.667C532 781.333 528.4 775.067 526 774.133C522.133 772.667 519.2 773.2 516.933 775.733Z" fill="black"/>
<path d="M615.333 798C609.2 804 612.4 812 620.933 812C625.467 812 630.667 807.2 630.667 802.933C630.667 799.2 625.733 794.667 621.733 794.667C620 794.667 617.067 796.133 615.333 798Z" fill="black"/>
</svg>
